<svg xmlns="http://www.w3.org/2000/svg" width="25.841" height="31.01" viewBox="0 0 25.841 31.01">
  <g id="bell" transform="translate(-2)">
    <g id="Group_84" data-name="Group 84" transform="translate(12.337 0)">
      <path id="Path_78" data-name="Path 78" d="M14.522,5.4a.646.646,0,0,1-.646-.646V2.584a1.292,1.292,0,1,0-2.584,0V4.755a.646.646,0,1,1-1.292,0V2.584a2.584,2.584,0,0,1,5.168,0V4.755A.645.645,0,0,1,14.522,5.4Z" transform="translate(-10 0)"/>
    </g>
    <g id="Group_85" data-name="Group 85" transform="translate(10.398 25.841)">
      <path id="Path_79" data-name="Path 79" d="M13.022,25.168A4.527,4.527,0,0,1,8.5,20.646a.646.646,0,1,1,1.292,0,3.23,3.23,0,0,0,6.46,0,.646.646,0,1,1,1.292,0A4.527,4.527,0,0,1,13.022,25.168Z" transform="translate(-8.5 -20)"/>
    </g>
    <g id="Group_86" data-name="Group 86" transform="translate(2 3.876)">
      <path id="Path_80" data-name="Path 80" d="M25.9,26.257H3.938a1.938,1.938,0,0,1-1.26-3.411,8.983,8.983,0,0,0,3.2-6.876V12.045a9.045,9.045,0,1,1,18.089,0V15.97a8.973,8.973,0,0,0,3.188,6.867,1.938,1.938,0,0,1-1.249,3.42ZM14.921,4.292a7.76,7.76,0,0,0-7.752,7.752V15.97a10.265,10.265,0,0,1-3.645,7.855.646.646,0,0,0,.415,1.141H25.9a.646.646,0,0,0,.42-1.137,10.273,10.273,0,0,1-3.65-7.858V12.045a7.76,7.76,0,0,0-7.752-7.752Z" transform="translate(-2 -3)"/>
    </g>
  </g>
</svg>
