<svg xmlns="http://www.w3.org/2000/svg" width="23.633" height="22.161" viewBox="0 0 23.633 22.161">
  <g id="book" transform="translate(-1.25 -1.918)">
    <path id="Path_6224" data-name="Path 6224" d="M13.066,24.08a1.929,1.929,0,0,1-.934-.231A27.57,27.57,0,0,0,4.2,21.244L3.877,21.2A3.1,3.1,0,0,1,1.25,18.21V4.932a2.981,2.981,0,0,1,3.265-3,21.233,21.233,0,0,1,8.134,2.693l.264.154a.427.427,0,0,0,.308.011l.176-.11a21.671,21.671,0,0,1,8.145-2.737h.132a2.914,2.914,0,0,1,2.242.78,2.975,2.975,0,0,1,.967,2.231V18.221a3.088,3.088,0,0,1-2.638,2.99l-.363.044a27.262,27.262,0,0,0-7.9,2.605,1.809,1.809,0,0,1-.912.22ZM4.251,3.569a1.344,1.344,0,0,0-.923.352A1.36,1.36,0,0,0,2.9,4.932V18.21a1.453,1.453,0,0,0,1.187,1.363l.33.044a29.2,29.2,0,0,1,8.464,2.77.493.493,0,0,0,.3.033,28.712,28.712,0,0,1,8.5-2.8l.374-.044a1.443,1.443,0,0,0,1.187-1.363V4.943a1.384,1.384,0,0,0-.429-1.022,1.435,1.435,0,0,0-1.055-.352h-.132a20.2,20.2,0,0,0-7.332,2.473l-.176.121a2.03,2.03,0,0,1-2.045.011L11.8,6.02a20.24,20.24,0,0,0-7.42-2.451H4.251Z"/>
    <path id="Path_6225" data-name="Path 6225" d="M12.074,22.877a.83.83,0,0,1-.824-.824V5.564a.824.824,0,1,1,1.649,0V22.052A.823.823,0,0,1,12.074,22.877Z" transform="translate(0.992 0.28)"/>
    <path id="Path_6226" data-name="Path 6226" d="M8.048,9.389H5.574a.824.824,0,1,1,0-1.649H8.048a.824.824,0,0,1,0,1.649Z" transform="translate(0.347 0.577)"/>
    <path id="Path_6227" data-name="Path 6227" d="M8.872,12.389h-3.3a.824.824,0,1,1,0-1.649h3.3a.824.824,0,1,1,0,1.649Z" transform="translate(0.347 0.875)"/>
  </g>
</svg>
