<svg xmlns="http://www.w3.org/2000/svg" width="22.022" height="19.895" viewBox="0 0 22.022 19.895">
  <g id="Layer_2" data-name="Layer 2" transform="translate(-0.988 -2.055)">
    <path id="Path_6257" data-name="Path 6257" d="M6.739,21.95a5.749,5.749,0,0,1-4.065-9.816l8.485-8.486A.75.75,0,0,1,12.22,4.709L3.734,13.194A4.25,4.25,0,1,0,9.745,19.2L20.7,8.24a2.751,2.751,0,1,0-3.89-3.89L7.977,13.194a1.25,1.25,0,1,0,1.768,1.768L15.4,9.306a.75.75,0,1,1,1.061,1.06L10.8,16.023a2.75,2.75,0,0,1-3.89-3.889L15.755,3.3a4.25,4.25,0,0,1,6.011,6.01L10.806,20.266A5.715,5.715,0,0,1,6.739,21.95Z" fill="#283b6d"/>
  </g>
</svg>
