<svg id="expand" xmlns="http://www.w3.org/2000/svg" width="22.634" height="22.634" viewBox="0 0 22.634 22.634">
  <g id="Group_1732" data-name="Group 1732">
    <path id="Path_6221" data-name="Path 6221" d="M21.983,0H.652A.649.649,0,0,0,0,.652V10.878a.652.652,0,1,0,1.3,0V1.3H21.331V21.331H11.7a.652.652,0,1,0,0,1.3H21.983a.649.649,0,0,0,.652-.652V.652A.649.649,0,0,0,21.983,0Z"/>
    <path id="Path_6222" data-name="Path 6222" d="M8.474,279.9H.652a.649.649,0,0,0-.652.652v7.823a.649.649,0,0,0,.652.652H8.474a.649.649,0,0,0,.652-.652v-7.823A.655.655,0,0,0,8.474,279.9Zm-.652,7.823H1.3V281.2h6.52Z" transform="translate(0 -266.392)"/>
    <path id="Path_6223" data-name="Path 6223" d="M215.855,83.825v3.451a.652.652,0,1,0,1.3,0V82.252a.649.649,0,0,0-.652-.652h-5.024a.652.652,0,0,0,0,1.3h3.451l-6.216,6.216a.654.654,0,0,0,.458,1.115.636.636,0,0,0,.458-.193Z" transform="translate(-198.462 -77.662)"/>
  </g>
</svg>
