<svg id="_12-Lock" data-name="12-Lock" xmlns="http://www.w3.org/2000/svg" width="14.575" height="20.405" viewBox="0 0 14.575 20.405">
  <path id="Path_49" data-name="Path 49" d="M18.389,9.288V6.89A4.9,4.9,0,0,0,13.5,2h-.423a4.9,4.9,0,0,0-4.89,4.89v2.4A2.186,2.186,0,0,0,6,11.474v6.777a4.161,4.161,0,0,0,4.154,4.154h6.267a4.161,4.161,0,0,0,4.154-4.154V11.474A2.186,2.186,0,0,0,18.389,9.288ZM9.644,6.89a3.432,3.432,0,0,1,3.432-3.432H13.5A3.432,3.432,0,0,1,16.931,6.89v2.4H9.644Zm9.474,11.361a2.7,2.7,0,0,1-2.7,2.7H10.154a2.7,2.7,0,0,1-2.7-2.7V11.474a.729.729,0,0,1,.729-.729h10.2a.729.729,0,0,1,.729.729Z" transform="translate(-6 -2)" fill="#8a84a1"/>
  <path id="Path_50" data-name="Path 50" d="M16.186,19.708V22.1a.729.729,0,0,1-1.458,0v-2.39a1.458,1.458,0,1,1,1.458,0Z" transform="translate(-8.17 -6.065)" fill="#8a84a1"/>
</svg>
