<svg xmlns="http://www.w3.org/2000/svg" width="28" height="28" viewBox="0 0 28 28">
  <g id="Group_1707" data-name="Group 1707" transform="translate(-0.2)">
    <rect id="Rectangle_58" data-name="Rectangle 58" width="28" height="28" rx="5" transform="translate(0.2)" fill="#e1e1e1"/>
    <path id="maximize" d="M17.082,0H2.785A2.788,2.788,0,0,0,0,2.785v14.3a2.788,2.788,0,0,0,2.785,2.785h14.3a2.788,2.788,0,0,0,2.785-2.785V2.785A2.788,2.788,0,0,0,17.082,0Zm1.543,17.082a1.545,1.545,0,0,1-1.543,1.543H2.785a1.545,1.545,0,0,1-1.543-1.543V2.785A1.545,1.545,0,0,1,2.785,1.242h14.3a1.545,1.545,0,0,1,1.543,1.543ZM16.193,3.674a.621.621,0,0,1,.18.482L16.112,7.9a.621.621,0,0,1-.619.578l-.044,0a.621.621,0,0,1-.576-.662l.146-2.09L11.231,9.514a.621.621,0,1,1-.878-.878l3.788-3.788-2.09.146a.621.621,0,0,1-.086-1.239l3.745-.261a.622.622,0,0,1,.482.18ZM9.514,10.353a.621.621,0,0,1,0,.878L5.726,15.019l2.09-.146A.621.621,0,1,1,7.9,16.112l-3.745.261-.043,0a.621.621,0,0,1-.619-.664l.261-3.745a.621.621,0,0,1,1.239.086l-.146,2.09,3.788-3.788a.621.621,0,0,1,.878,0Z" transform="translate(4.567 4.067)"/>
  </g>
</svg>
