<svg xmlns="http://www.w3.org/2000/svg" width="20.585" height="22.695" viewBox="0 0 20.585 22.695">
  <g id="ppt" transform="translate(-21.6 -17.3)">
    <path id="Path_6264" data-name="Path 6264" d="M42.04,23.289l-5.868-5.868a.447.447,0,0,0-.291-.121H27.419a2.111,2.111,0,0,0-2.109,2.109V27.58h-2.5A1.2,1.2,0,0,0,21.6,28.793v7.1a1.2,1.2,0,0,0,1.212,1.212h2.5v.776a2.111,2.111,0,0,0,2.109,2.109H40.076a2.111,2.111,0,0,0,2.109-2.109V23.6A.635.635,0,0,0,42.04,23.289Zm-1.334-.121H37.53a1.268,1.268,0,0,1-1.261-1.261V18.731l2.206,2.206ZM22.449,35.873v-7.1a.373.373,0,0,1,.364-.364H35.081a.373.373,0,0,1,.364.364v7.1a.373.373,0,0,1-.364.364H22.812a.357.357,0,0,1-.364-.364Zm17.627,3.249H27.419a1.268,1.268,0,0,1-1.261-1.261v-.776h8.9a1.2,1.2,0,0,0,1.212-1.212v-7.1a1.2,1.2,0,0,0-1.212-1.212h-8.9V19.385a1.268,1.268,0,0,1,1.261-1.261h8.026v3.782a2.111,2.111,0,0,0,2.109,2.109h3.782V37.861A1.318,1.318,0,0,1,40.076,39.122Z" fill="#d50052"/>
    <path id="Path_6265" data-name="Path 6265" d="M34.185,73.188A1.207,1.207,0,0,0,32.876,72H31.3v3.491h.752v-1.14h.824A1.176,1.176,0,0,0,34.185,73.188Zm-1.406.485h-.752v-.994h.752c.364,0,.63.194.63.485S33.167,73.673,32.779,73.673Z" transform="translate(-7.348 -41.437)" fill="#d50052"/>
    <path id="Path_6266" data-name="Path 6266" d="M46.952,74.376h.824a1.194,1.194,0,1,0,0-2.376H46.2v3.491h.752Zm0-1.673H47.7c.364,0,.63.194.63.485s-.242.485-.63.485h-.752Z" transform="translate(-18.635 -41.437)" fill="#d50052"/>
    <path id="Path_6267" data-name="Path 6267" d="M61.467,75.516h.776V72.679H63.31V72H60.4v.679h1.067Z" transform="translate(-29.392 -41.437)" fill="#d50052"/>
  </g>
</svg>
