<svg id="settings_3_" data-name="settings (3)" xmlns="http://www.w3.org/2000/svg" width="24" height="24" viewBox="0 0 24 24">
  <g id="Group_1730" data-name="Group 1730">
    <path id="Path_6219" data-name="Path 6219" d="M13.12,24H10.88a1.5,1.5,0,0,1-1.486-1.32L9.155,20.8a9.45,9.45,0,0,1-1.374-.569L6.287,21.4A1.492,1.492,0,0,1,4.3,21.27L2.727,19.695A1.488,1.488,0,0,1,2.6,17.716l1.161-1.5A9.232,9.232,0,0,1,3.2,14.847l-1.88-.239A1.5,1.5,0,0,1,0,13.12V10.88A1.5,1.5,0,0,1,1.32,9.394L3.2,9.155a9.45,9.45,0,0,1,.569-1.374L2.6,6.287A1.491,1.491,0,0,1,2.732,4.3L4.307,2.726A1.489,1.489,0,0,1,6.286,2.6L7.78,3.766A9.416,9.416,0,0,1,9.155,3.2l.239-1.88A1.5,1.5,0,0,1,10.88,0h2.24a1.5,1.5,0,0,1,1.486,1.32L14.845,3.2a9.416,9.416,0,0,1,1.375.569L17.714,2.6a1.491,1.491,0,0,1,1.985.127l1.575,1.575A1.488,1.488,0,0,1,21.4,6.285L20.235,7.78A9.232,9.232,0,0,1,20.8,9.154l1.88.239A1.5,1.5,0,0,1,24,10.88v2.24a1.5,1.5,0,0,1-1.32,1.486l-1.876.239a9.45,9.45,0,0,1-.569,1.374L21.4,17.713a1.49,1.49,0,0,1-.127,1.985l-1.575,1.575a1.487,1.487,0,0,1-1.979.122l-1.5-1.161a9.232,9.232,0,0,1-1.374.569l-.239,1.88A1.5,1.5,0,0,1,13.12,24ZM7.73,19.14a.507.507,0,0,1,.244.063,8.393,8.393,0,0,0,1.774.736.5.5,0,0,1,.358.417l.28,2.2A.505.505,0,0,0,10.88,23h2.24a.5.5,0,0,0,.493-.439l.281-2.2a.5.5,0,0,1,.358-.417,8.393,8.393,0,0,0,1.774-.736.5.5,0,0,1,.55.042l1.75,1.36a.492.492,0,0,0,.655-.034l1.585-1.585a.5.5,0,0,0,.039-.66l-1.36-1.75a.5.5,0,0,1-.042-.55,8.393,8.393,0,0,0,.736-1.774.5.5,0,0,1,.417-.358l2.2-.28A.507.507,0,0,0,23,13.12V10.88a.5.5,0,0,0-.439-.493l-2.2-.281a.5.5,0,0,1-.417-.358A8.393,8.393,0,0,0,19.2,7.974a.5.5,0,0,1,.042-.55l1.36-1.75a.49.49,0,0,0-.033-.654L18.988,3.435a.492.492,0,0,0-.66-.039l-1.75,1.36a.5.5,0,0,1-.551.042,8.359,8.359,0,0,0-1.774-.736.5.5,0,0,1-.358-.417l-.28-2.2A.507.507,0,0,0,13.12,1H10.88a.5.5,0,0,0-.493.439l-.281,2.2a.5.5,0,0,1-.358.418A8.356,8.356,0,0,0,7.974,4.8a.5.5,0,0,1-.551-.041L5.673,3.4a.49.49,0,0,0-.654.033L3.434,5.014a.5.5,0,0,0-.039.66l1.36,1.75a.5.5,0,0,1,.042.55,8.341,8.341,0,0,0-.736,1.774.5.5,0,0,1-.417.358l-2.2.28A.505.505,0,0,0,1,10.88v2.24a.5.5,0,0,0,.439.493l2.2.281a.5.5,0,0,1,.417.358A8.393,8.393,0,0,0,4.8,16.026a.5.5,0,0,1-.042.55l-1.36,1.75a.49.49,0,0,0,.033.654l1.585,1.585a.494.494,0,0,0,.66.039l1.75-1.36a.515.515,0,0,1,.308-.1Z"/>
  </g>
  <g id="Group_1731" data-name="Group 1731">
    <path id="Path_6220" data-name="Path 6220" d="M12,17a5,5,0,1,1,5-5A5.006,5.006,0,0,1,12,17Zm0-9a4,4,0,1,0,4,4A4,4,0,0,0,12,8Z"/>
  </g>
</svg>
