<svg xmlns="http://www.w3.org/2000/svg" width="25.397" height="27.295" viewBox="0 0 25.397 27.295">
  <g id="person" transform="translate(-96 -85.91)">
    <path id="Path_83" data-name="Path 83" d="M165.772,99.455a6.772,6.772,0,1,1,6.772-6.772A6.772,6.772,0,0,1,165.772,99.455Zm0-11.664a4.891,4.891,0,1,0,4.891,4.891A4.891,4.891,0,0,0,165.772,87.791Z" transform="translate(-57.074)"/>
    <path id="Path_84" data-name="Path 84" d="M120.456,261.634a.941.941,0,0,1-.941-.941v-2.325a6.744,6.744,0,0,0-6.737-6.737h-8.161a6.744,6.744,0,0,0-6.737,6.737v2.325a.941.941,0,0,1-1.881,0v-2.325a8.628,8.628,0,0,1,8.618-8.618h8.16a8.628,8.628,0,0,1,8.619,8.618v2.325A.941.941,0,0,1,120.456,261.634Z" transform="translate(0 -148.429)"/>
  </g>
</svg>
