<svg xmlns="http://www.w3.org/2000/svg" width="18.598" height="22.292" viewBox="0 0 18.598 22.292">
  <g id="user" transform="translate(0)">
    <path id="Path_47" data-name="Path 47" d="M92.4,10.738a5.2,5.2,0,0,0,3.8-1.573,5.2,5.2,0,0,0,1.573-3.8,5.2,5.2,0,0,0-1.573-3.8,5.368,5.368,0,0,0-7.592,0,5.2,5.2,0,0,0-1.573,3.8,5.2,5.2,0,0,0,1.573,3.8A5.2,5.2,0,0,0,92.4,10.738ZM89.529,2.5a4.061,4.061,0,0,1,5.745,0,3.882,3.882,0,0,1,1.19,2.872,3.882,3.882,0,0,1-1.19,2.873,4.061,4.061,0,0,1-5.745,0,3.881,3.881,0,0,1-1.191-2.873A3.881,3.881,0,0,1,89.529,2.5Zm0,0" transform="translate(-83.242 0)" fill="#8a84a1"/>
    <path id="Path_48" data-name="Path 48" d="M18.553,253.69a13.263,13.263,0,0,0-.181-1.409,11.1,11.1,0,0,0-.346-1.416,7,7,0,0,0-.582-1.321,4.979,4.979,0,0,0-.878-1.144,3.871,3.871,0,0,0-1.261-.792,4.358,4.358,0,0,0-1.61-.291,1.634,1.634,0,0,0-.873.37c-.262.171-.568.368-.909.586a5.21,5.21,0,0,1-1.176.518,4.568,4.568,0,0,1-2.877,0,5.2,5.2,0,0,1-1.175-.518c-.338-.216-.644-.413-.91-.586a1.632,1.632,0,0,0-.872-.37,4.353,4.353,0,0,0-1.61.292,3.868,3.868,0,0,0-1.261.792,4.981,4.981,0,0,0-.878,1.144,7.009,7.009,0,0,0-.582,1.321,11.125,11.125,0,0,0-.346,1.416,13.171,13.171,0,0,0-.181,1.409c-.03.426-.045.869-.045,1.316a3.7,3.7,0,0,0,1.1,2.8,3.957,3.957,0,0,0,2.833,1.033H14.666a3.958,3.958,0,0,0,2.833-1.033,3.7,3.7,0,0,0,1.1-2.8c0-.449-.015-.892-.045-1.317ZM16.6,256.861a2.664,2.664,0,0,1-1.932.673H3.932A2.664,2.664,0,0,1,2,256.861a2.417,2.417,0,0,1-.694-1.854c0-.418.014-.83.041-1.226a11.879,11.879,0,0,1,.163-1.269,9.811,9.811,0,0,1,.3-1.249,5.706,5.706,0,0,1,.474-1.074,3.691,3.691,0,0,1,.645-.845,2.568,2.568,0,0,1,.839-.522,3.006,3.006,0,0,1,1.029-.2c.046.024.127.071.259.157.269.175.578.375.92.593a6.472,6.472,0,0,0,1.476.66,5.873,5.873,0,0,0,3.681,0,6.481,6.481,0,0,0,1.477-.66c.35-.224.651-.418.92-.593.132-.086.213-.132.259-.157a3.008,3.008,0,0,1,1.029.2,2.571,2.571,0,0,1,.839.522,3.681,3.681,0,0,1,.645.846,5.687,5.687,0,0,1,.474,1.074,9.79,9.79,0,0,1,.3,1.249,11.98,11.98,0,0,1,.163,1.269h0c.028.394.042.807.042,1.226a2.417,2.417,0,0,1-.694,1.854Zm0,0" transform="translate(0 -236.548)" fill="#8a84a1"/>
  </g>
</svg>
