<svg xmlns="http://www.w3.org/2000/svg" width="517.005" height="73" viewBox="0 0 517.005 73">
  <text id="Cloud_Central_Platform" data-name="Cloud Central Platform" transform="translate(84.005 44)" fill="#140d3e" font-size="42" font-family="Roboto-Bold, Roboto" font-weight="700"><tspan x="0" y="0">Cloud Central Platform</tspan></text>
  <text id="Unlock_Digital_Transformation_Through_Cloud_Adoption" data-name="Unlock Digital Transformation Through Cloud Adoption" transform="translate(84.005 68)" fill="#140d3e" font-size="18" font-family="Roboto-Italic, Roboto" font-style="italic"><tspan x="0" y="0">Unlock Digital Transformation Through Cloud Adoption</tspan></text>
  <g id="cc" transform="translate(-78.5 7.495)">
    <path id="Path_132" data-name="Path 132" d="M35.947-3.5A29.766,29.766,0,0,1,57.734,5.434a29.335,29.335,0,0,1,6.536,9.831A31.058,31.058,0,0,1,66.5,27,31.129,31.129,0,0,1,64.3,38.74a28,28,0,0,1-6.509,9.668,31.347,31.347,0,0,1-10.132,6.754A30.365,30.365,0,0,1,35.949,57.5a29.644,29.644,0,0,1-11.575-2.315,30.682,30.682,0,0,1-9.913-6.7A30.382,30.382,0,0,1,7.788,38.6a30.467,30.467,0,0,1,.027-23.231,30.629,30.629,0,0,1,6.727-10A28.832,28.832,0,0,1,35.947-3.5ZM36.057,2A23.64,23.64,0,0,0,18.463,9.3a26.225,26.225,0,0,0-5.529,8.2,24.187,24.187,0,0,0,0,18.955A25.822,25.822,0,0,0,26.579,50.018a24.756,24.756,0,0,0,18.984-.027,26.345,26.345,0,0,0,8.305-5.5A23.434,23.434,0,0,0,61,27a25.046,25.046,0,0,0-1.852-9.586,24.39,24.39,0,0,0-5.389-8.062A24.14,24.14,0,0,0,36.057,2Zm-.382,19.937-4.086,2.125a4.193,4.193,0,0,0-1.606-1.906,3.619,3.619,0,0,0-1.771-.544q-4.084,0-4.085,5.392a6.691,6.691,0,0,0,1.034,3.921A3.492,3.492,0,0,0,28.211,32.4a3.821,3.821,0,0,0,3.759-2.615l3.758,1.906a8.979,8.979,0,0,1-8.007,4.794,8.907,8.907,0,0,1-6.591-2.506,9.423,9.423,0,0,1-2.505-6.971,9.406,9.406,0,0,1,2.533-6.917,8.627,8.627,0,0,1,6.4-2.56Q33.225,17.525,35.675,21.938Zm17.594,0-4.031,2.125a4.189,4.189,0,0,0-1.607-1.906,3.7,3.7,0,0,0-1.824-.544q-4.085,0-4.086,5.392a6.691,6.691,0,0,0,1.035,3.921A3.488,3.488,0,0,0,45.806,32.4a3.817,3.817,0,0,0,3.757-2.615l3.813,1.906A9.364,9.364,0,0,1,50,35.2a8.8,8.8,0,0,1-4.63,1.28,8.877,8.877,0,0,1-6.616-2.506,9.472,9.472,0,0,1-2.48-6.971,9.4,9.4,0,0,1,2.534-6.917,8.623,8.623,0,0,1,6.4-2.56Q50.871,17.525,53.269,21.938Z" transform="translate(73 8)" fill="#061534"/>
  </g>
</svg>
