<svg xmlns="http://www.w3.org/2000/svg" width="24.292" height="14.527" viewBox="0 0 24.292 14.527">
  <g id="Amazon_Web_Services_Logo" transform="translate(-1.668 -1.1)">
    <path id="Path_6254" data-name="Path 6254" d="M19.941,6.376a2.444,2.444,0,0,0,.089.719,4.324,4.324,0,0,0,.259.582.351.351,0,0,1,.057.186.32.32,0,0,1-.154.242l-.509.339a.387.387,0,0,1-.21.073A.372.372,0,0,1,19.23,8.4a2.5,2.5,0,0,1-.291-.38c-.081-.137-.162-.291-.25-.477a2.985,2.985,0,0,1-2.375,1.115A2.214,2.214,0,0,1,14.7,8.081a2.075,2.075,0,0,1-.6-1.551,2.08,2.08,0,0,1,.735-1.664,2.939,2.939,0,0,1,1.979-.63,6.4,6.4,0,0,1,.856.065c.3.04.606.105.929.178v-.59a1.79,1.79,0,0,0-.38-1.293A1.86,1.86,0,0,0,16.9,2.223a3.676,3.676,0,0,0-.873.105,6.438,6.438,0,0,0-.873.275,2.318,2.318,0,0,1-.283.105.5.5,0,0,1-.129.024c-.113,0-.17-.081-.17-.25v-.4a.511.511,0,0,1,.057-.283.6.6,0,0,1,.226-.17,4.651,4.651,0,0,1,1.018-.364,4.9,4.9,0,0,1,1.26-.154,2.952,2.952,0,0,1,2.117.654,2.674,2.674,0,0,1,.671,1.988V6.376ZM16.661,7.6a2.618,2.618,0,0,0,.832-.145,1.8,1.8,0,0,0,.768-.517,1.282,1.282,0,0,0,.275-.517,2.9,2.9,0,0,0,.081-.7V5.382a6.747,6.747,0,0,0-.743-.137,6.088,6.088,0,0,0-.759-.048,1.863,1.863,0,0,0-1.2.323,1.126,1.126,0,0,0-.4.929A1.042,1.042,0,0,0,16.661,7.6Zm6.488.873a.451.451,0,0,1-.307-.081.658.658,0,0,1-.17-.315l-1.9-6.245a1.415,1.415,0,0,1-.073-.323.177.177,0,0,1,.194-.2h.792A.448.448,0,0,1,22,1.391a.661.661,0,0,1,.162.315l1.357,5.349,1.26-5.349a.567.567,0,0,1,.154-.315.556.556,0,0,1,.323-.081H25.9a.486.486,0,0,1,.323.081.544.544,0,0,1,.154.315l1.277,5.413,1.4-5.413a.693.693,0,0,1,.162-.315.527.527,0,0,1,.315-.081h.751a.18.18,0,0,1,.2.2.806.806,0,0,1-.016.129,1.149,1.149,0,0,1-.057.2L28.465,8.089a.62.62,0,0,1-.17.315.517.517,0,0,1-.307.081h-.695A.486.486,0,0,1,26.97,8.4a.573.573,0,0,1-.154-.323L25.565,2.869l-1.244,5.2a.631.631,0,0,1-.154.323.5.5,0,0,1-.323.081Zm10.382.218a5.346,5.346,0,0,1-1.244-.145,3.675,3.675,0,0,1-.929-.323A.582.582,0,0,1,31.107,8a.57.57,0,0,1-.048-.226V7.361c0-.17.065-.25.186-.25a.457.457,0,0,1,.145.024c.048.016.121.048.2.081a4.395,4.395,0,0,0,.889.283,4.852,4.852,0,0,0,.961.1,2.18,2.18,0,0,0,1.18-.267.87.87,0,0,0,.42-.768A.787.787,0,0,0,34.824,6a2.027,2.027,0,0,0-.816-.42l-1.172-.364a2.464,2.464,0,0,1-1.293-.824,1.925,1.925,0,0,1-.4-1.172,1.8,1.8,0,0,1,.218-.9,2.077,2.077,0,0,1,.582-.663,2.564,2.564,0,0,1,.84-.42A3.521,3.521,0,0,1,33.8,1.1a4.056,4.056,0,0,1,.541.032c.186.024.355.057.525.089s.315.081.461.129a1.763,1.763,0,0,1,.339.145.7.7,0,0,1,.242.2.435.435,0,0,1,.073.267v.38c0,.17-.065.259-.186.259a.84.84,0,0,1-.307-.1,3.7,3.7,0,0,0-1.551-.315,2.085,2.085,0,0,0-1.075.226.78.78,0,0,0-.38.719.763.763,0,0,0,.242.574,2.413,2.413,0,0,0,.889.444l1.147.364a2.457,2.457,0,0,1,1.252.776,1.828,1.828,0,0,1,.372,1.131,2.077,2.077,0,0,1-.21.937,2.173,2.173,0,0,1-.59.711,2.6,2.6,0,0,1-.9.452A3.842,3.842,0,0,1,33.531,8.695Z" transform="translate(-11.428)" fill="#fff"/>
    <g id="Group_1746" data-name="Group 1746" transform="translate(1.668 10.156)">
      <path id="Path_6255" data-name="Path 6255" d="M23.63,121.127a17.427,17.427,0,0,1-9.841,3.006,17.8,17.8,0,0,1-12.014-4.581c-.25-.226-.024-.533.275-.355a23.861,23.861,0,0,0,21.192,1.317C23.687,120.311,24.067,120.8,23.63,121.127Z" transform="translate(-1.668 -118.662)" fill="#fff" fill-rule="evenodd"/>
      <path id="Path_6256" data-name="Path 6256" d="M249.316,114.4c-.339-.436-2.246-.21-3.111-.105-.259.032-.3-.194-.065-.364,1.519-1.066,4.015-.759,4.306-.4s-.081,2.86-1.5,4.056c-.218.186-.428.089-.331-.154C248.937,116.627,249.656,114.825,249.316,114.4Z" transform="translate(-226.247 -113.192)" fill="#fff" fill-rule="evenodd"/>
    </g>
  </g>
</svg>
