<svg xmlns="http://www.w3.org/2000/svg" width="22" height="12.891" viewBox="0 0 22 12.891">
  <g id="Cloud_1_" transform="translate(0 -106)">
    <g id="Group_1745" data-name="Group 1745" transform="translate(0 106)">
      <path id="Path_6253" data-name="Path 6253" d="M18.09,118.891H3.91a3.907,3.907,0,0,1-2.752-1.129,3.817,3.817,0,0,1,0-5.477,3.911,3.911,0,0,1,2.108-1.076q0-.026,0-.053A5.162,5.162,0,0,1,8.422,106a5.1,5.1,0,0,1,2.93.918,5.165,5.165,0,0,1,1.486,1.592,3.866,3.866,0,0,1,5.85,2.692,3.91,3.91,0,0,1,2.154,1.083,3.817,3.817,0,0,1,0,5.477A3.907,3.907,0,0,1,18.09,118.891ZM3.91,112.445a2.578,2.578,0,1,0,0,5.156H18.09a2.578,2.578,0,1,0,0-5.156h-.645V111.8a2.575,2.575,0,0,0-4.383-1.838l-.694.681-.357-.9a3.862,3.862,0,0,0-7.457,1.416,3.491,3.491,0,0,0,.049.489l.115.8Z" transform="translate(0 -106)" fill="#112ce6"/>
    </g>
  </g>
</svg>
